<svg width="40" height="40" viewBox="0 0 40 40" fill="none" xmlns="http://www.w3.org/2000/svg">
<path d="M17.32 28.94C17.7563 28.94 18.11 28.5788 18.11 28.1333C18.11 27.6878 17.7563 27.3267 17.32 27.3267C16.8837 27.3267 16.53 27.6878 16.53 28.1333C16.53 28.5788 16.8837 28.94 17.32 28.94Z" stroke="black" stroke-linecap="round" stroke-linejoin="round"/>
<path d="M26.01 28.94C26.4463 28.94 26.8 28.5788 26.8 28.1333C26.8 27.6878 26.4463 27.3267 26.01 27.3267C25.5737 27.3267 25.22 27.6878 25.22 28.1333C25.22 28.5788 25.5737 28.94 26.01 28.94Z" stroke="black" stroke-linecap="round" stroke-linejoin="round"/>
<path d="M11 12H14.16L16.2772 22.8013C16.3494 23.1727 16.5473 23.5063 16.8362 23.7437C17.125 23.9811 17.4865 24.1073 17.8572 24.1H25.536C25.9067 24.1073 26.2682 23.9811 26.557 23.7437C26.8459 23.5063 27.0438 23.1727 27.116 22.8013L28.38 16.0333H14.95" stroke="black" stroke-linecap="round" stroke-linejoin="round"/>
</svg>
